# xmcd
#
# Track frame offsets:
#	150
#	14327
#	25423
#	36568
#	50515
#	60960
#	73018
#	86688
#	96534
#	109694
#	121821
#	141397
#	153095
#	162754
#	177379
#	191554
#
# Disc length: 2720 seconds
#
# Revision: 0
# Processed by: cddbd v1.5.1PL2 Copyright (c) Steve Scherf et al.
# Submitted via: dBpowerAMP V4.0
#
DISCID=db0a9e10
DTITLE=Acoustic Endeavors - Coming Of Age
DYEAR=1995
DGENRE=Bluegrass
TTITLE0=Highway Blues
TTITLE1=If You Would
TTITLE2=O'Reily's Mule
TTITLE3=Can't Be Found
TTITLE4=Love Don't Live Here Anymore
TTITLE5=My Song
TTITLE6=Raintree County
TTITLE7=Self Portrait
TTITLE8=Cold And Rainy Shore
TTITLE9=Span Of Time
TTITLE10=Jonesborough
TTITLE11=Out On The Line
TTITLE12=But It's Not
TTITLE13=Flowers For Emily
TTITLE14=Coming Down
TTITLE15=The Street
EXTD=
EXTT0=
EXTT1=
EXTT2=
EXTT3=
EXTT4=
EXTT5=
EXTT6=
EXTT7=
EXTT8=
EXTT9=
EXTT10=
EXTT11=
EXTT12=
EXTT13=
EXTT14=
EXTT15=
PLAYORDER=
